<svg xmlns="http://www.w3.org/2000/svg" viewBox="0 0 74 51" width="512" height="512"><path fill="#f98012" d="M61.9 50.3V27.4c0-4.8-2-7.2-5.9-7.2-4 0-5.9 2.4-5.9 7.2v22.9H38.4V27.4c0-4.8-1.9-7.2-5.8-7.2-4 0-5.9 2.4-5.9 7.2v22.9H15V26.1c0-5 1.7-8.8 5.2-11.3 3-2.3 7.2-3.4 12.4-3.4 5.3 0 9.2 1.4 11.6 4.1 2.2-2.7 6.1-4.1 11.8-4.1 5.2 0 9.3 1.1 12.4 3.4 3.5 2.6 5.2 6.3 5.2 11.3v24.3H61.9z"/><path fill="#333" d="M37.6 9.5L49.2 1 49 .6C28.1 3.1 18.6 4.9.7 15.4l.2.5h1.4c-.1 1.4-.4 5-.1 10.4-2 5.8 0 9.7 1.8 14 .3-4.4.3-9.3-1.1-14.1-.3-5.3 0-8.8.1-10.2h11.9s-.1 3.6.4 7c10.7 3.7 21.4 0 27.1-9.2-1.7-1.9-4.8-4.3-4.8-4.3z"/></svg>