<svg xmlns="http://www.w3.org/2000/svg" viewBox="0 74.46 344.72 235.31">
  <path fill="#f98012" d="M289.61 309.77V201.51q0-33.94-28-33.95t-28.06 33.95v108.26H178.4V201.51q0-33.94-27.57-33.95-28.05 0-28 33.95v108.26H67.67V195.12q0-35.43 24.6-53.63 21.66-16.25 58.56-16.25 37.41 0 55.12 19.19 15.26-19.19 55.62-19.19 36.9 0 58.54 16.25 24.6 18.19 24.61 53.63v114.65z"/>
  <path fill="#333" d="M174.74 116.9l54.74-40-.7-2.44C130 86.57 85.08 95.15 0 144.47l.79 2.24 6.76.07c-.62 6.81-1.7 23.64-.32 48.95-9.44 27.32-.24 45.88 8.4 66.07 1.37-21 1.23-44-5.22-66.89-1.35-25.14-.24-41.67.37-48.1l56.4.54a258 258 0 001.67 33.06c50.4 17.71 101.09-.06 128-43.72-7.47-8.37-22.11-19.79-22.11-19.79z"/>
</svg>